<?xml version="1.0" encoding="utf-8"?>
<!-- Generator: Adobe Illustrator 15.0.0, SVG Export Plug-In  -->
<!DOCTYPE svg PUBLIC "-//W3C//DTD SVG 1.1//EN" "http://www.w3.org/Graphics/SVG/1.1/DTD/svg11.dtd" [
	<!ENTITY ns_flows "http://ns.adobe.com/Flows/1.0/">
]>
<svg version="1.1"
	 xmlns="http://www.w3.org/2000/svg" xmlns:xlink="http://www.w3.org/1999/xlink" xmlns:a="http://ns.adobe.com/AdobeSVGViewerExtensions/3.0/"
	 x="0px" y="0px" width="38px" height="39px" viewBox="0 0 38 39" enable-background="new 0 0 38 39" xml:space="preserve">
<defs>
</defs>
<rect id="_x3C_Slice_x3E__14_" fill="none" width="38" height="39"/>
<g>
	<g>
		<path fill="#575655" d="M8.148,37.894v-7.227h1.875c0.723,0,1.276,0.137,1.663,0.41c0.385,0.273,0.578,0.667,0.578,1.182
			c0,0.875-0.495,1.499-1.484,1.87c1.182,0.361,1.772,1.014,1.772,1.958c0,0.586-0.195,1.034-0.586,1.343s-0.954,0.464-1.689,0.464
			H8.148z M9.164,33.841h0.327c0.547,0,0.971-0.117,1.271-0.352c0.302-0.234,0.452-0.565,0.452-0.991c0-0.709-0.55-1.064-1.65-1.064
			h-0.4V33.841z M9.164,37.127h0.21c0.752,0,1.238-0.047,1.46-0.142c0.423-0.179,0.635-0.511,0.635-0.996
			c0-0.43-0.192-0.787-0.576-1.072s-0.864-0.427-1.44-0.427H9.164V37.127z"/>
		<path fill="#575655" d="M18.547,37.894l-0.786-2.002h-3.062l-0.796,2.002h-0.952l2.866-7.227h1.016l2.822,7.227H18.547z
			 M17.463,35.13l-1.23-3.115l-1.235,3.115H17.463z"/>
		<path fill="#575655" d="M22.016,38.074c-0.485,0-1.105-0.106-1.86-0.317v-1.016c0.813,0.377,1.482,0.566,2.007,0.566
			c0.403,0,0.729-0.106,0.974-0.317c0.246-0.211,0.369-0.49,0.369-0.835c0-0.283-0.08-0.524-0.242-0.723
			c-0.16-0.199-0.458-0.42-0.891-0.664l-0.498-0.288c-0.615-0.352-1.049-0.683-1.301-0.994c-0.253-0.311-0.379-0.673-0.379-1.086
			c0-0.557,0.202-1.015,0.605-1.375s0.918-0.54,1.543-0.54c0.557,0,1.145,0.093,1.763,0.278v0.938
			c-0.762-0.299-1.33-0.449-1.704-0.449c-0.354,0-0.647,0.094-0.879,0.283s-0.347,0.426-0.347,0.713c0,0.241,0.085,0.454,0.254,0.64
			s0.479,0.407,0.928,0.664l0.518,0.293c0.625,0.355,1.062,0.69,1.309,1.006s0.371,0.695,0.371,1.138
			c0,0.628-0.231,1.133-0.696,1.514C23.396,37.884,22.78,38.074,22.016,38.074z"/>
		<path fill="#575655" d="M25.886,37.894v-7.227h4.038v0.767h-3.013v2.422h2.529v0.757h-2.529v3.281H25.886z"/>
	</g>
</g>
<path fill="#053563" d="M9.462,26.626c-0.266,0-1.25-0.061-2.067-0.836c-0.711-0.674-1.071-1.666-1.071-2.949V9.185
	c0.066-0.92,0.845-2.501,3.286-2.72l0.004-0.85c0.112-1.092,0.957-3.155,3.361-3.155h14.97c1.109,0.061,3.121,0.964,3.121,3.966
	l0.034,16.698c0.019,0.273,0.029,1.328-0.789,2.238c-0.753,0.838-1.938,1.262-3.523,1.262H9.526
	C9.517,26.624,9.495,26.626,9.462,26.626z M9.61,8.163c-1.513,0.184-1.599,1.074-1.6,1.084l0.003,13.594
	c0,0.791,0.179,1.366,0.53,1.711c0.4,0.391,0.948,0.387,0.951,0.384h17.295c1.057,0,1.835-0.237,2.25-0.686
	c0.413-0.444,0.377-0.991,0.375-1.015L29.377,6.427c0-2.173-1.418-2.275-1.478-2.279L12.976,4.149c-1.393,0-1.64,1.318-1.676,1.6
	v17.203H9.61V8.163z"/>
<path fill="#053563" d="M19.521,12.563h-7.11V5.454h7.11V12.563z M14.101,10.874h3.731v-3.73h-3.731V10.874z"/>
<rect x="21" y="6.843" fill="#053563" width="7.04" height="0.844"/>
<rect x="21" y="9.104" fill="#053563" width="7.04" height="0.845"/>
<rect x="21" y="11.366" fill="#053563" width="7.04" height="0.845"/>
<rect x="21" y="18.226" fill="#053563" width="7.04" height="0.846"/>
<rect x="21" y="20.488" fill="#053563" width="7.04" height="0.845"/>
<rect x="21" y="22.751" fill="#053563" width="7.04" height="0.844"/>
<rect x="12.693" y="18.205" fill="#053563" width="7.04" height="0.845"/>
<rect x="12.693" y="20.478" fill="#053563" width="7.04" height="0.845"/>
<rect x="12.693" y="22.751" fill="#053563" width="7.04" height="0.844"/>
<rect x="12.693" y="13.628" fill="#053563" width="15.346" height="0.881"/>
<rect x="12.693" y="15.927" fill="#053563" width="15.346" height="0.882"/>
</svg>
