<?xml version="1.0" encoding="utf-8"?>
<!-- Generator: Adobe Illustrator 15.0.0, SVG Export Plug-In  -->
<!DOCTYPE svg PUBLIC "-//W3C//DTD SVG 1.1//EN" "http://www.w3.org/Graphics/SVG/1.1/DTD/svg11.dtd" [
	<!ENTITY ns_flows "http://ns.adobe.com/Flows/1.0/">
]>
<svg version="1.1"
	 xmlns="http://www.w3.org/2000/svg" xmlns:xlink="http://www.w3.org/1999/xlink" xmlns:a="http://ns.adobe.com/AdobeSVGViewerExtensions/3.0/"
	 x="0px" y="0px" width="38px" height="35px" viewBox="0 0 38 35" enable-background="new 0 0 38 35" xml:space="preserve">
<defs>
</defs>
<path fill="#FFFFFF" d="M35.11,18.127c0,8.838-7.163,16-16,16c-8.836,0-16-7.162-16-16c0-8.836,7.164-16,16-16
	C27.947,2.127,35.11,9.291,35.11,18.127"/>
<path fill="#11497F" d="M11.762,20.186v6.488c0,0.529,0.459,0.957,1.027,0.957h13.598c0.566,0,1.025-0.428,1.025-0.957v-6.98
	c1.242-0.578,2.285-1.377,2.908-2.471c1.282-2.248,1.381-4.422,0.281-6.129c-1.096-1.699-3.236-2.672-5.873-2.672
	c-1.889,0-3.576,0.771-4.961,1.746C18.534,8.893,16.149,7.73,13.6,7.793c-1.646,0.041-3.979,0.609-5.754,3.092
	c-0.913,1.277-1.195,2.627-0.832,4.014C7.698,17.518,10.559,19.467,11.762,20.186 M9.558,11.947
	c1.032-1.445,2.413-2.197,4.097-2.236c1.836-0.041,3.688,0.811,4.576,1.725c-1.402,1.322-2.25,2.6-2.32,2.713
	c-0.295,0.449-0.141,1.035,0.346,1.314c0.486,0.273,1.115,0.129,1.412-0.324c0.029-0.047,3.187-4.803,7.061-4.803
	c1.896,0,3.396,0.635,4.113,1.744c0.711,1.105,0.594,2.611-0.336,4.24c-1.705,2.986-8.975,3.107-11.633,2.902
	c-0.564-0.047-1.063,0.35-1.108,0.875c-0.048,0.529,0.372,0.992,0.938,1.037c0.114,0.006,0.889,0.063,2.024,0.063
	c1.729,0,4.296-0.135,6.63-0.768v5.283H13.819v-6.066c0-0.348-0.203-0.67-0.529-0.84c-0.035-0.016-3.641-1.914-4.277-4.365
	C8.792,13.588,8.969,12.773,9.558,11.947"/>
<rect id="_x3C_Slice_x3E__14_" fill="none" width="38" height="35"/>
</svg>
