<?xml version="1.0" encoding="utf-8"?>
<!-- Generator: Adobe Illustrator 15.0.0, SVG Export Plug-In  -->
<!DOCTYPE svg PUBLIC "-//W3C//DTD SVG 1.1//EN" "http://www.w3.org/Graphics/SVG/1.1/DTD/svg11.dtd" [
	<!ENTITY ns_flows "http://ns.adobe.com/Flows/1.0/">
]>
<svg version="1.1"
	 xmlns="http://www.w3.org/2000/svg" xmlns:xlink="http://www.w3.org/1999/xlink" xmlns:a="http://ns.adobe.com/AdobeSVGViewerExtensions/3.0/"
	 x="0px" y="0px" width="38px" height="38px" viewBox="0 0 38 38" enable-background="new 0 0 38 38" xml:space="preserve">
<defs>
</defs>
<path fill="#053563" d="M32.566,14.202c0-7.458-6.205-13.697-14.072-13.697S4.195,6.226,4.195,13.686
	c0,6.437,10.488,18.41,13.396,22.998c0.152,0.245,0.428,0.394,0.729,0.394c0.297,0,0.574-0.148,0.727-0.394
	C21.955,32.099,32.566,20.638,32.566,14.202 M18.463,25.038c-6.324,0-11.471-4.766-11.471-10.938S12.137,2.64,18.463,2.64
	c6.328,0,11.473,5.025,11.473,11.198S24.791,25.038,18.463,25.038"/>
<path fill="#053563" d="M15.779,13.601c0.176,0.432,0.211,0.916,0.16,1.375c-0.041,0.356,0.643,0.535,0.943,0.659
	c0.924,0.381,1.742,0.34,2.662-0.038c0.379-0.156,1.291-0.959,1.648-0.959c-0.049-1.004-0.154-1.771,0.309-2.711
	c0.385-0.787,1.818-2.133,0.84-3.021c-0.256-0.235-0.189-1.777-0.344-2.253C21.811,6.08,21.57,5.45,21.131,5.02
	c-1.873-1.835-5.598-0.923-6.141,1.704c-0.189,0.914,0.115,1.902-0.141,2.795c-0.225,0.783-0.279,1.458,0.162,2.184
	C15.385,12.319,15.504,12.922,15.779,13.601C16.043,14.251,15.465,12.826,15.779,13.601"/>
<path fill="#053563" d="M17.719,17.016c-0.264,0.443-0.484,0.595-0.293,1.064c0.119,0.292,0.313,0.58,0.281,0.899
	c-0.092,1.044-0.186,2.088-0.279,3.133c-0.057,0.625-0.111,1.248-0.166,1.873c0.344,0.031,0.693,0.05,1.049,0.05
	c0.219,0,0.438-0.008,0.656-0.021c-0.082-1.576-0.162-3.152-0.242-4.729c-0.008-0.146-0.092-0.483-0.033-0.623
	c0.076-0.174,0.941-0.663,0.846-0.813C19.178,17.271,18.367,15.914,17.719,17.016"/>
<path fill="#053563" d="M27.756,18.989c-2.053-0.967-4.223-1.982-5.955-3.436c-0.283,0.801-0.922,1.859-0.814,2.701
	c0.145,1.095,0.287,2.191,0.428,3.287c0.084,0.662,0.17,1.325,0.254,1.988C24.182,22.754,26.32,21.128,27.756,18.989"/>
<path fill="#053563" d="M15.758,18.681c0.105-1.035-0.092-1.752-0.361-2.76c-1.381,1.002-3.271,1.556-4.783,2.372
	c-0.518,0.281-1.096,0.558-1.605,0.901c1.473,2.097,3.637,3.673,6.162,4.398C15.395,21.957,15.592,20.32,15.758,18.681"/>
<rect id="_x3C_Slice_x3E__14_" fill="none" width="38" height="38"/>
</svg>
