<?xml version="1.0" encoding="utf-8"?>
<!-- Generator: Adobe Illustrator 15.0.0, SVG Export Plug-In  -->
<!DOCTYPE svg PUBLIC "-//W3C//DTD SVG 1.1//EN" "http://www.w3.org/Graphics/SVG/1.1/DTD/svg11.dtd" [
	<!ENTITY ns_flows "http://ns.adobe.com/Flows/1.0/">
]>
<svg version="1.1"
	 xmlns="http://www.w3.org/2000/svg" xmlns:xlink="http://www.w3.org/1999/xlink" xmlns:a="http://ns.adobe.com/AdobeSVGViewerExtensions/3.0/"
	 x="0px" y="0px" width="38px" height="38px" viewBox="0 0 38 38" enable-background="new 0 0 38 38" xml:space="preserve">
<defs>
</defs>
<path fill="#053563" d="M15.58,10.919c-0.596,0.07-1.033,0.413-1.287,0.97c-0.305,0.665-0.664,1.387-0.973,2.054
	c-0.514,1.117-1.094,2.245-1.635,3.347c-0.121,0.241-0.289,0.478-0.338,0.755c-0.068,0.361,0.088,0.584,0.453,0.584
	c3.609,0,7.221,0,10.832,0.01c0.709,0.001,1.184-0.304,1.477-0.936c0.232-0.502,0.479-0.994,0.727-1.488
	c0.684-1.375,1.238-2.815,1.922-4.19c0.281-0.567,0.24-1.118-0.385-1.118c-1.807,0-3.602-0.015-5.408-0.015
	C19.172,10.891,16.492,10.813,15.58,10.919"/>
<path fill="#053563" d="M23.736,10.106c-0.002-0.072-0.002-0.072-0.047-0.205c-0.15-0.497-0.4-0.679-0.924-0.685
	c-1.066-0.013-2.131,0.029-3.201-0.022c-0.023-0.219,0.055-0.445-0.047-0.658c-0.168-0.522-0.51-0.871-1.068-0.901
	C17.74,7.6,17.021,7.573,16.316,7.637c-0.686,0.062-0.984,0.411-1.057,1.022c-0.105,0.174-0.029,0.362-0.053,0.542
	c-1.057,0.005-2.113,0.012-3.172,0.016c-0.717,0.004-0.564,0.219-0.564,0.925c0,2.117-0.043,6.762-0.021,6.718
	c0.818-1.657,1.576-3.272,2.412-4.923c0.359-0.703,0.867-0.795,1.68-0.795h-0.043c2.633,0,5.24-0.311,7.871-0.309
	C23.771,10.833,23.75,10.521,23.736,10.106 M16.615,8.38c0.541-0.003,1.08-0.006,1.617,0c0.447,0.008,0.674,0.349,0.525,0.765
	c-0.045,0.121-0.137,0.069-0.207,0.07c-0.395,0.006-0.789,0.002-1.182,0.002c-0.385,0-0.768-0.008-1.148,0.005
	c-0.166,0.005-0.209-0.046-0.209-0.206C16.01,8.509,16.119,8.382,16.615,8.38"/>
<path fill="#053563" d="M32.541,14.255c0-7.458-6.207-13.696-14.074-13.696c-7.869,0-14.299,5.721-14.299,13.181
	c0,6.436,10.49,18.409,13.396,22.997c0.152,0.246,0.43,0.393,0.729,0.393c0.297,0,0.576-0.146,0.727-0.393
	C21.928,32.152,32.541,20.691,32.541,14.255 M18.436,25.091c-6.324,0-11.471-4.765-11.471-10.938s5.145-11.46,11.471-11.46
	c6.328,0,11.475,5.024,11.475,11.198C29.91,20.064,24.764,25.091,18.436,25.091"/>
<rect id="_x3C_Slice_x3E__14_" fill="none" width="38" height="38"/>
</svg>
