<?xml version="1.0" encoding="utf-8"?>
<!-- Generator: Adobe Illustrator 15.0.0, SVG Export Plug-In  -->
<!DOCTYPE svg PUBLIC "-//W3C//DTD SVG 1.1//EN" "http://www.w3.org/Graphics/SVG/1.1/DTD/svg11.dtd" [
	<!ENTITY ns_flows "http://ns.adobe.com/Flows/1.0/">
]>
<svg version="1.1"
	 xmlns="http://www.w3.org/2000/svg" xmlns:xlink="http://www.w3.org/1999/xlink" xmlns:a="http://ns.adobe.com/AdobeSVGViewerExtensions/3.0/"
	 x="0px" y="0px" width="38px" height="38px" viewBox="0 0 38 38" enable-background="new 0 0 38 38" xml:space="preserve">
<defs>
</defs>
<rect id="_x3C_Slice_x3E__14_" fill="none" width="38" height="38"/>
<g>
	<g>
		<path fill="#575655" d="M0.101,36.984v-7.227h4.038v0.767H1.126v2.422h2.529v0.757H1.126v3.281H0.101z"/>
		<path fill="#575655" d="M6.946,37.106c-0.759,0-1.364-0.251-1.816-0.754s-0.679-1.176-0.679-2.019
			c0-0.853,0.228-1.527,0.681-2.024c0.455-0.497,1.07-0.745,1.849-0.745s1.394,0.248,1.849,0.745
			c0.453,0.497,0.681,1.168,0.681,2.014c0,0.866-0.228,1.546-0.684,2.041S7.744,37.106,6.946,37.106z M6.961,36.384
			c1.019,0,1.528-0.687,1.528-2.061c0-1.357-0.503-2.036-1.509-2.036c-1.003,0-1.504,0.682-1.504,2.046
			C5.477,35.7,5.972,36.384,6.961,36.384z"/>
		<path fill="#575655" d="M10.394,36.984v-5.303h0.962v0.996c0.381-0.742,0.935-1.113,1.66-1.113c0.098,0,0.2,0.008,0.308,0.024
			v0.898c-0.166-0.055-0.313-0.083-0.439-0.083c-0.608,0-1.118,0.361-1.528,1.084v3.496H10.394z"/>
		<path fill="#575655" d="M13.836,36.984v-7.227h1.968c0.872,0,1.499,0.147,1.88,0.442s0.571,0.779,0.571,1.453
			c0,0.768-0.261,1.371-0.781,1.807s-1.243,0.654-2.168,0.654h-0.454v2.871H13.836z M14.852,33.337h0.415
			c0.608,0,1.079-0.14,1.411-0.42s0.498-0.675,0.498-1.187c0-0.433-0.13-0.742-0.391-0.928s-0.695-0.278-1.304-0.278h-0.63V33.337z"
			/>
		<path fill="#575655" d="M20.848,37.106c-0.759,0-1.364-0.251-1.816-0.754s-0.679-1.176-0.679-2.019
			c0-0.853,0.227-1.527,0.682-2.024c0.453-0.497,1.069-0.745,1.848-0.745s1.395,0.248,1.848,0.745
			c0.455,0.497,0.682,1.168,0.682,2.014c0,0.866-0.228,1.546-0.684,2.041S21.646,37.106,20.848,37.106z M20.862,36.384
			c1.019,0,1.528-0.687,1.528-2.061c0-1.357-0.503-2.036-1.509-2.036c-1.003,0-1.504,0.682-1.504,2.046
			C19.378,35.7,19.873,36.384,20.862,36.384z"/>
		<path fill="#575655" d="M24.296,36.984v-5.303h0.962v0.996c0.508-0.742,1.13-1.113,1.865-1.113c0.459,0,0.825,0.146,1.099,0.437
			s0.41,0.683,0.41,1.174v3.809H27.67v-3.496c0-0.394-0.058-0.675-0.173-0.842c-0.116-0.167-0.308-0.251-0.574-0.251
			c-0.589,0-1.145,0.386-1.665,1.157v3.433H24.296z"/>
		<path fill="#575655" d="M31.474,37.106c-0.488,0-0.869-0.14-1.143-0.42s-0.41-0.669-0.41-1.167v-3.115h-0.664v-0.723h0.664V30.72
			l0.962-0.093v1.055h1.387v0.723h-1.387v2.939c0,0.693,0.3,1.04,0.898,1.04c0.127,0,0.281-0.021,0.464-0.063v0.664
			C31.949,37.066,31.691,37.106,31.474,37.106z"/>
		<path fill="#575655" d="M35.077,37.106c-0.759,0-1.364-0.251-1.816-0.754s-0.679-1.176-0.679-2.019
			c0-0.853,0.228-1.527,0.681-2.024c0.455-0.497,1.07-0.745,1.849-0.745s1.394,0.248,1.849,0.745
			c0.453,0.497,0.681,1.168,0.681,2.014c0,0.866-0.228,1.546-0.684,2.041S35.875,37.106,35.077,37.106z M35.092,36.384
			c1.019,0,1.528-0.687,1.528-2.061c0-1.357-0.503-2.036-1.509-2.036c-1.003,0-1.504,0.682-1.504,2.046
			C33.607,35.7,34.103,36.384,35.092,36.384z"/>
	</g>
</g>
<path fill="#053563" d="M18.625,26.07c-6.813,0-12.354-5.542-12.354-12.354c0-6.813,5.542-12.354,12.354-12.354
	c6.811,0,12.354,5.542,12.354,12.354C30.979,20.528,25.436,26.07,18.625,26.07z M18.625,3.897c-5.416,0-9.82,4.404-9.82,9.819
	c0,5.414,4.404,9.819,9.82,9.819c5.414,0,9.818-4.405,9.818-9.819C28.444,8.302,24.04,3.897,18.625,3.897z"/>
<polygon fill="#053563" points="23.864,18.753 17.674,14.7 17.674,7.698 19.364,7.698 19.364,13.788 24.79,17.339 "/>
</svg>
