<?xml version="1.0" encoding="utf-8"?>
<!-- Generator: Adobe Illustrator 15.0.0, SVG Export Plug-In  -->
<!DOCTYPE svg PUBLIC "-//W3C//DTD SVG 1.1//EN" "http://www.w3.org/Graphics/SVG/1.1/DTD/svg11.dtd" [
	<!ENTITY ns_flows "http://ns.adobe.com/Flows/1.0/">
]>
<svg version="1.1"
	 xmlns="http://www.w3.org/2000/svg" xmlns:xlink="http://www.w3.org/1999/xlink" xmlns:a="http://ns.adobe.com/AdobeSVGViewerExtensions/3.0/"
	 x="0px" y="0px" width="38px" height="35px" viewBox="0 0 38 35" enable-background="new 0 0 38 35" xml:space="preserve">
<defs>
</defs>
<path fill="#FFFFFF" d="M35.11,17.123c0,8.838-7.163,16-16,16c-8.836,0-16-7.162-16-16s7.164-16,16-16
	C27.947,1.123,35.11,8.285,35.11,17.123"/>
<path fill="#8DD0E2" d="M29.172,13.59c0.346,4.523-4.233,9.355-4.233,9.355l0.286,5.428h-8.088l-0.617-2.496
	c0,0-0.352,0.568-2.438,0.742c-2.091,0.172-1.836-2.299-1.836-2.299s-1.393-0.596-1.393-1.041s0.824-1.021,0.824-1.021
	s-0.885,0.156-1.205-0.205c-0.318-0.359,0.392-1.668,0.392-1.668s-1.093-0.025-1.735-0.711c-0.641-0.682,2.026-2.711,2.026-4.014
	c-0.159-0.748-0.217-1.445-0.217-2.109h1.069l0.156-0.57c0,0,0.564-0.314,0.844-0.475c0.006-0.158,0.025-0.309,0.059-0.459
	c-0.225-0.186-0.668-0.557-0.668-0.557v-0.744l1.098-1.242h0.771c0,0,0.365,0.301,0.546,0.455c0.198-0.092,0.407-0.17,0.627-0.227
	c0.017-0.211,0.051-0.631,0.051-0.631l0.546-0.525l1.68,0.131l0.545,0.527c0,0-0.047,0.553-0.069,0.828
	c0.166,0.09,0.319,0.191,0.464,0.307c0.237-0.105,0.711-0.316,0.711-0.316l0.744,0.191l0.703,1.488l0.025,0.1l-0.221,0.619
	c0,0-0.547,0.242-0.824,0.365c-0.009,0.176-0.037,0.348-0.082,0.512c0.073,0.061,0.174,0.143,0.271,0.223h1.037l0.07-0.26
	c0,0,0.307-0.17,0.457-0.256c0.004-0.082,0.018-0.168,0.033-0.248c-0.121-0.104-0.365-0.303-0.365-0.303v-0.402l0.598-0.674h0.418
	c0,0,0.199,0.164,0.296,0.246c0.108-0.053,0.222-0.094,0.341-0.125c0.01-0.113,0.027-0.344,0.027-0.344l0.297-0.283l0.912,0.07
	l0.295,0.287c0,0-0.025,0.299-0.037,0.451c0.09,0.047,0.176,0.105,0.252,0.166c0.127-0.057,0.387-0.17,0.387-0.17l0.404,0.102
	l0.38,0.807l0.013,0.055l-0.119,0.336c0,0-0.297,0.133-0.448,0.199c-0.005,0.094-0.022,0.188-0.046,0.277
	c0.023,0.021,0.057,0.047,0.088,0.068h3.588 M18.19,12.643c0-0.906-0.758-1.641-1.695-1.641s-1.695,0.734-1.695,1.641
	c0,0.34,0.104,0.652,0.283,0.908h2.824C18.086,13.295,18.19,12.982,18.19,12.643 M24.362,13.109c0-0.49-0.413-0.893-0.921-0.893
	c-0.509,0-0.921,0.402-0.921,0.893c0,0.166,0.059,0.311,0.141,0.441h1.563C24.303,13.42,24.362,13.275,24.362,13.109"/>
<path fill="#8DD0E2" d="M24.436,9.322l0.543-0.137L25.6,8.18l-0.142-0.518c0,0-0.408-0.221-0.618-0.336
	c-0.008-0.113-0.021-0.221-0.046-0.33C24.958,6.865,25.284,6.6,25.284,6.6V6.068l-0.803-0.887h-0.562c0,0-0.271,0.215-0.401,0.32
	c-0.144-0.063-0.301-0.119-0.455-0.158c-0.017-0.148-0.045-0.449-0.045-0.449l-0.397-0.379l-1.228,0.096l-0.396,0.377
	c0,0,0.031,0.393,0.049,0.592c-0.119,0.064-0.23,0.135-0.336,0.217c-0.176-0.072-0.521-0.225-0.521-0.225l-0.545,0.139l-0.516,1.061
	L19.11,6.84l0.16,0.443c0,0,0.402,0.172,0.606,0.26c0.009,0.127,0.028,0.248,0.058,0.363c-0.151,0.125-0.455,0.373-0.455,0.373
	v0.531l0.795,0.891c0,0,0.467,0.051,0.49,0.037c0.02-0.01,0.074-0.037,0.074-0.037s0.289-0.232,0.439-0.348
	c0.121,0.051,0.25,0.094,0.381,0.127c0.02,0.158,0.049,0.469,0.049,0.469l0.396,0.379l1.23-0.105l0.396-0.379
	c0,0-0.039-0.4-0.062-0.605c0.104-0.049,0.202-0.111,0.294-0.178C24.114,9.146,24.436,9.322,24.436,9.322 M22.29,8.592
	c-0.688,0-1.244-0.523-1.244-1.172c0-0.645,0.555-1.172,1.244-1.172c0.684,0,1.24,0.527,1.24,1.172
	C23.53,8.068,22.973,8.592,22.29,8.592"/>
<rect id="_x3C_Slice_x3E__14_" fill="none" width="38" height="35"/>
</svg>
