<?xml version="1.0" encoding="utf-8"?>
<!-- Generator: Adobe Illustrator 15.0.0, SVG Export Plug-In  -->
<!DOCTYPE svg PUBLIC "-//W3C//DTD SVG 1.1//EN" "http://www.w3.org/Graphics/SVG/1.1/DTD/svg11.dtd" [
	<!ENTITY ns_flows "http://ns.adobe.com/Flows/1.0/">
]>
<svg version="1.1"
	 xmlns="http://www.w3.org/2000/svg" xmlns:xlink="http://www.w3.org/1999/xlink" xmlns:a="http://ns.adobe.com/AdobeSVGViewerExtensions/3.0/"
	 x="0px" y="0px" width="38px" height="38px" viewBox="0 0 38 38" enable-background="new 0 0 38 38" xml:space="preserve">
<defs>
</defs>
<path fill="#053563" d="M35.849,32.529l-3.145-3.146c0.657-1.039,1.044-2.268,1.044-3.586c0-3.691-3.009-6.703-6.702-6.703
	c-3.693,0-6.702,3.012-6.702,6.703c0,3.699,3.009,6.705,6.702,6.705c1.312,0,2.547-0.391,3.582-1.045l3.149,3.148
	c0.283,0.285,0.661,0.432,1.036,0.432c0.373,0,0.75-0.146,1.035-0.432C36.425,34.031,36.425,33.104,35.849,32.529 M27.046,30.406
	c-2.544,0-4.609-2.068-4.609-4.609s2.065-4.607,4.609-4.607c2.542,0,4.609,2.066,4.609,4.607S29.588,30.406,27.046,30.406"/>
<path fill="#053563" d="M14.996,24.16H8.613c-0.349,0-0.633,0.283-0.633,0.631c0,0.35,0.284,0.633,0.633,0.633h6.383
	c0.349,0,0.632-0.283,0.632-0.633C15.628,24.443,15.345,24.16,14.996,24.16L14.996,24.16z M14.996,24.16"/>
<path fill="#053563" d="M24.54,8.359H8.613c-0.349,0-0.633,0.283-0.633,0.631c0,0.35,0.284,0.633,0.633,0.633H24.54
	c0.349,0,0.632-0.283,0.632-0.633C25.172,8.643,24.889,8.359,24.54,8.359L24.54,8.359z M24.54,8.359"/>
<path fill="#053563" d="M24.54,11.52h-6.384c-0.349,0-0.632,0.283-0.632,0.631c0,0.35,0.283,0.633,0.632,0.633h6.384
	c0.349,0,0.632-0.283,0.632-0.633C25.172,11.803,24.889,11.52,24.54,11.52L24.54,11.52z M24.54,11.52"/>
<path fill="#053563" d="M24.54,14.678h-6.384c-0.349,0-0.632,0.283-0.632,0.633s0.283,0.633,0.632,0.633h6.384
	c0.349,0,0.632-0.283,0.632-0.633S24.889,14.678,24.54,14.678L24.54,14.678z M24.54,14.678"/>
<path fill="#053563" d="M14.996,21H8.613c-0.349,0-0.633,0.281-0.633,0.631s0.284,0.633,0.633,0.633h6.383
	c0.349,0,0.632-0.283,0.632-0.633S15.345,21,14.996,21L14.996,21z M14.996,21"/>
<path fill="#053563" d="M14.996,11.52H8.613c-0.349,0-0.633,0.283-0.633,0.631v6.383c0,0.35,0.284,0.633,0.633,0.633h6.383
	c0.349,0,0.632-0.283,0.632-0.633V12.15C15.628,11.803,15.345,11.52,14.996,11.52L14.996,11.52z M14.364,17.902h-5.12v-5.119h5.12
	V17.902z M14.364,17.902"/>
<path fill="#053563" d="M19.471,27.951H7.348c-1.046,0-1.896-0.85-1.896-1.895V5.83H27.7v12.113
	c0.433,0.035,0.854,0.105,1.264,0.205V8.99h1.896v9.885c0.45,0.246,0.873,0.533,1.265,0.859V8.99c0-0.697-0.567-1.264-1.265-1.264
	h-1.896V5.83c0-0.697-0.568-1.264-1.264-1.264H5.452c-0.698,0-1.264,0.566-1.264,1.264v20.227c0,1.742,1.417,3.16,3.16,3.16h12.599
	C19.753,28.813,19.593,28.391,19.471,27.951z"/>
<path fill="#053563" d="M19.349,24.16h-1.193c-0.349,0-0.632,0.283-0.632,0.631c0,0.35,0.283,0.633,0.632,0.633h1.035
	C19.213,24.992,19.261,24.57,19.349,24.16z"/>
<path fill="#053563" d="M20.82,21h-2.664c-0.349,0-0.632,0.281-0.632,0.631s0.283,0.633,0.632,0.633h1.867
	C20.25,21.814,20.516,21.393,20.82,21z"/>
<path fill="#053563" d="M25.088,18.176c-0.107-0.197-0.308-0.336-0.548-0.336h-6.384c-0.349,0-0.632,0.281-0.632,0.633
	c0,0.348,0.283,0.631,0.632,0.631h4.763C23.583,18.691,24.312,18.377,25.088,18.176z"/>
<rect id="_x3C_Slice_x3E__14_" fill="none" width="38" height="38"/>
</svg>
