<?xml version="1.0" encoding="utf-8"?>
<!-- Generator: Adobe Illustrator 15.0.0, SVG Export Plug-In  -->
<!DOCTYPE svg PUBLIC "-//W3C//DTD SVG 1.1//EN" "http://www.w3.org/Graphics/SVG/1.1/DTD/svg11.dtd" [
	<!ENTITY ns_flows "http://ns.adobe.com/Flows/1.0/">
]>
<svg version="1.1"
	 xmlns="http://www.w3.org/2000/svg" xmlns:xlink="http://www.w3.org/1999/xlink" xmlns:a="http://ns.adobe.com/AdobeSVGViewerExtensions/3.0/"
	 x="0px" y="0px" width="38px" height="39px" viewBox="0 0 38 39" enable-background="new 0 0 38 39" xml:space="preserve">
<defs>
</defs>
<rect id="_x3C_Slice_x3E__14_" fill="none" width="38" height="39"/>
<g>
	<g>
		<path class="link-styles--svg" fill="#575655" d="M6.355,36.359v-7.227h4.038v0.767H7.38v2.319h2.524v0.757H7.38v2.617h3.223v0.767H6.355z"/>
		<path class="link-styles--svg" fill="#575655" d="M11.705,36.359v-5.303h0.962v0.996c0.381-0.742,0.935-1.113,1.66-1.113c0.098,0,0.2,0.008,0.308,0.024
			v0.898c-0.166-0.055-0.313-0.083-0.439-0.083c-0.608,0-1.118,0.361-1.528,1.084v3.496H11.705z"/>
		<path class="link-styles--svg" fill="#575655" d="M15.715,38.122l0.112-0.835c0.557,0.264,1.105,0.396,1.646,0.396c1.084,0,1.626-0.575,1.626-1.724v-0.835
			c-0.354,0.742-0.938,1.113-1.748,1.113c-0.635,0-1.14-0.231-1.514-0.693s-0.562-1.085-0.562-1.87c0-0.807,0.213-1.465,0.64-1.973
			s0.979-0.762,1.655-0.762c0.593,0,1.102,0.241,1.528,0.723v-0.605h0.967v3.857c0,0.83-0.043,1.444-0.13,1.843
			c-0.086,0.399-0.248,0.725-0.485,0.979c-0.42,0.446-1.072,0.669-1.958,0.669C16.875,38.405,16.282,38.311,15.715,38.122z
			 M19.099,34.523v-2.202c-0.423-0.439-0.884-0.659-1.382-0.659c-0.442,0-0.789,0.177-1.04,0.532s-0.376,0.841-0.376,1.46
			c0,1.162,0.408,1.743,1.226,1.743C18.083,35.397,18.608,35.106,19.099,34.523z"/>
		<path class="link-styles--svg" fill="#575655" d="M23.907,36.481c-0.759,0-1.364-0.251-1.816-0.754s-0.679-1.176-0.679-2.019
			c0-0.853,0.228-1.527,0.681-2.024c0.455-0.497,1.07-0.745,1.849-0.745s1.394,0.248,1.849,0.745
			c0.453,0.497,0.681,1.168,0.681,2.014c0,0.866-0.228,1.546-0.684,2.041S24.705,36.481,23.907,36.481z M23.921,35.759
			c1.019,0,1.528-0.687,1.528-2.061c0-1.357-0.503-2.036-1.509-2.036c-1.003,0-1.504,0.682-1.504,2.046
			C22.437,35.075,22.932,35.759,23.921,35.759z"/>
		<path class="link-styles--svg" fill="#575655" d="M27.874,36.359v-5.303h0.962v0.996c0.508-0.742,1.13-1.113,1.865-1.113c0.459,0,0.825,0.146,1.099,0.437
			s0.41,0.683,0.41,1.174v3.809h-0.962v-3.496c0-0.394-0.058-0.675-0.173-0.842c-0.116-0.167-0.308-0.251-0.574-0.251
			c-0.589,0-1.145,0.386-1.665,1.157v3.433H27.874z"/>
	</g>
</g>
<path class="link-styles--svg" fill="#053563" d="M19.344,13.684h2.728c0.107,0,0.195-0.088,0.195-0.195v-2.361c0-0.109-0.088-0.197-0.195-0.197h-2.728
	c-0.108,0-0.196,0.088-0.196,0.197v2.361C19.147,13.596,19.235,13.684,19.344,13.684L19.344,13.684z M19.344,13.684"/>
<path class="link-styles--svg" fill="#053563" d="M23.795,13.684h2.728c0.108,0,0.195-0.088,0.195-0.195v-2.361c0-0.109-0.087-0.197-0.195-0.197h-2.728
	c-0.107,0-0.195,0.088-0.195,0.197v2.361C23.6,13.596,23.688,13.684,23.795,13.684L23.795,13.684z M23.795,13.684"/>
<path class="link-styles--svg" fill="#053563" d="M10.44,17.551h2.728c0.108,0,0.195-0.088,0.195-0.195v-2.363c0-0.107-0.087-0.195-0.195-0.195H10.44
	c-0.108,0-0.196,0.088-0.196,0.195v2.363C10.244,17.463,10.332,17.551,10.44,17.551L10.44,17.551z M10.44,17.551"/>
<path class="link-styles--svg" fill="#053563" d="M14.892,17.551h2.729c0.107,0,0.195-0.088,0.195-0.195v-2.363c0-0.107-0.088-0.195-0.195-0.195h-2.729
	c-0.108,0-0.195,0.088-0.195,0.195v2.363C14.696,17.463,14.783,17.551,14.892,17.551L14.892,17.551z M14.892,17.551"/>
<path class="link-styles--svg" fill="#053563" d="M14.892,13.684h2.729c0.107,0,0.195-0.088,0.195-0.195v-2.362c0-0.108-0.088-0.196-0.195-0.196h-2.729
	c-0.108,0-0.195,0.088-0.195,0.196v2.362C14.696,13.596,14.783,13.684,14.892,13.684L14.892,13.684z M14.892,13.684"/>
<path class="link-styles--svg" fill="#053563" d="M19.344,17.551h2.728c0.107,0,0.195-0.088,0.195-0.195v-2.363c0-0.107-0.088-0.195-0.195-0.195h-2.728
	c-0.108,0-0.196,0.088-0.196,0.195v2.363C19.147,17.463,19.235,17.551,19.344,17.551L19.344,17.551z M19.344,17.551"/>
<path class="link-styles--svg" fill="#053563" d="M13.168,18.664H10.44c-0.108,0-0.196,0.088-0.196,0.196v2.362c0,0.107,0.088,0.195,0.196,0.195h2.728
	c0.108,0,0.195-0.088,0.195-0.195V18.86C13.363,18.752,13.276,18.664,13.168,18.664L13.168,18.664z M13.168,18.664"/>
<path class="link-styles--svg" fill="#053563" d="M17.62,18.664h-2.729c-0.108,0-0.195,0.088-0.195,0.196v2.362c0,0.107,0.087,0.195,0.195,0.195h2.729
	c0.107,0,0.195-0.088,0.195-0.195V18.86C17.815,18.752,17.728,18.664,17.62,18.664L17.62,18.664z M17.62,18.664"/>
<path class="link-styles--svg" fill="#053563" d="M23.941,16.975l0.337,0.268c0.23-0.119,0.471-0.221,0.717-0.303l0.049-0.422
	c0.057-0.473,0.455-0.828,0.93-0.828h0.744v-0.697c0-0.107-0.087-0.195-0.195-0.195h-2.728c-0.107,0-0.195,0.088-0.195,0.195v1.822
	C23.722,16.845,23.84,16.894,23.941,16.975z"/>
<path fill="#053563" d="M20.519,21.143c0-0.475,0.356-0.873,0.828-0.929l0.469-0.054c0.068-0.218,0.152-0.43,0.252-0.636
	l-0.299-0.378c-0.114-0.144-0.164-0.312-0.183-0.482h-2.242c-0.108,0-0.196,0.088-0.196,0.196v2.362
	c0,0.107,0.088,0.195,0.196,0.195h1.175V21.143z"/>
<path class="link-styles--svg" fill="#053563" d="M31.667,21.002l-0.999-0.117l-0.073-0.279c-0.086-0.328-0.218-0.652-0.391-0.962l-0.139-0.247l0.615-0.776
	c0.029-0.037,0.025-0.089-0.008-0.124l-0.977-0.859l-0.766,0.607l-0.25-0.147c-0.314-0.186-0.655-0.328-1.012-0.425l-0.277-0.074
	l-0.113-0.981c-0.006-0.046-0.045-0.082-0.091-0.082h-1.214c-0.046,0-0.085,0.036-0.091,0.082l-0.114,0.981l-0.277,0.074
	c-0.364,0.098-0.713,0.246-1.037,0.439l-0.25,0.149l-0.909-0.618L22.438,18.5c-0.034,0.034-0.036,0.085-0.007,0.123l0.642,0.812
	l-0.136,0.246c-0.169,0.305-0.298,0.632-0.383,0.97l-0.072,0.283l-1.037,0.119c-0.046,0.006-0.081,0.045-0.081,0.09v1.214
	c0,0.047,0.035,0.086,0.082,0.091l1.066,0.124l0.078,0.269c0.092,0.313,0.218,0.613,0.375,0.891l0.14,0.248l-0.674,0.85
	c-0.029,0.037-0.025,0.09,0.008,0.123l0.979,0.863l0.848-0.672l0.248,0.144c0.291,0.167,0.603,0.299,0.924,0.392l0.271,0.076
	l0.127,1.083c0.005,0.046,0.044,0.082,0.09,0.082h1.214c0.046,0,0.085-0.036,0.091-0.082l0.123-1.062l0.279-0.072
	c0.344-0.09,0.677-0.225,0.99-0.4l0.248-0.14l0.947,0.647l0.858-0.857c0.033-0.033,0.036-0.086,0.007-0.123l-0.648-0.82l0.144-0.248
	c0.18-0.311,0.317-0.638,0.408-0.973l0.074-0.276l1.008-0.116c0.046-0.006,0.081-0.044,0.081-0.09v-1.214
	C31.749,21.045,31.715,21.008,31.667,21.002z M26.582,23.688c-1.106,0-2.007-0.9-2.007-2.006s0.9-2.006,2.007-2.006
	c1.105,0,2.007,0.9,2.007,2.006S27.688,23.688,26.582,23.688z"/>
<path class="link-styles--svg" fill="#053563" d="M12.491,6.533h0.338c0.518,0,0.936-0.418,0.936-0.934V2.056c0-0.517-0.418-0.935-0.936-0.935h-0.338
	c-0.517,0-0.936,0.418-0.936,0.935V5.6C11.556,6.115,11.975,6.533,12.491,6.533z"/>
<path class="link-styles--svg" fill="#053563" d="M24.477,6.511h0.34c0.517,0,0.935-0.419,0.935-0.935V2.032c0-0.517-0.418-0.935-0.935-0.935h-0.34
	c-0.517,0-0.935,0.418-0.935,0.935v3.544C23.542,6.092,23.96,6.511,24.477,6.511z"/>
<path class="link-styles--svg" fill="#053563" d="M28.909,3.021h-2.398v2.8c0,0.934-0.76,1.449-1.694,1.449h-0.34c-0.934,0-1.694-0.76-1.694-1.693V3.021
	h-8.258V5.6c0,0.934-0.76,1.693-1.695,1.693h-0.338c-0.935,0-1.694-0.76-1.694-1.693V3.021H8.209c-0.838,0-1.519,0.682-1.519,1.519
	v18.357c0,0.838,0.681,1.52,1.519,1.52H21.71c0.021-0.037,0.031-0.077,0.059-0.111l0.327-0.412
	c-0.087-0.177-0.163-0.359-0.229-0.546l-0.519-0.061c-0.271-0.032-0.493-0.183-0.642-0.39H8.209V9.034h20.7v8.147l0.262-0.207
	c0.363-0.286,0.92-0.255,1.244,0.071l0.013,0.013V4.539C30.428,3.702,29.747,3.021,28.909,3.021z"/>
</svg>
