<?xml version="1.0" encoding="utf-8"?>
<!-- Generator: Adobe Illustrator 15.0.0, SVG Export Plug-In  -->
<!DOCTYPE svg PUBLIC "-//W3C//DTD SVG 1.1//EN" "http://www.w3.org/Graphics/SVG/1.1/DTD/svg11.dtd" [
	<!ENTITY ns_flows "http://ns.adobe.com/Flows/1.0/">
]>
<svg version="1.1"
	 xmlns="http://www.w3.org/2000/svg" xmlns:xlink="http://www.w3.org/1999/xlink" xmlns:a="http://ns.adobe.com/AdobeSVGViewerExtensions/3.0/"
	 x="0px" y="0px" width="38px" height="38px" viewBox="0 0 38 38" enable-background="new 0 0 38 38" xml:space="preserve">
<defs>
</defs>
<rect id="_x3C_Slice_x3E__15_" fill="none" width="38" height="38"/>
<path fill="#053563" d="M34,26c0-1.036-0.839-1.875-1.875-1.875H6.375C5.339,24.125,4.5,24.964,4.5,26l0,0
	c0,1.036,0.839,1.875,1.875,1.875h25.75C33.161,27.875,34,27.036,34,26L34,26z"/>
<path fill="#053563" d="M33.875,18.75c0-1.036-0.839-1.875-1.875-1.875H6.25c-1.036,0-1.875,0.839-1.875,1.875l0,0
	c0,1.036,0.839,1.875,1.875,1.875H32C33.036,20.625,33.875,19.786,33.875,18.75L33.875,18.75z"/>
<path fill="#053563" d="M33.875,11.875C33.875,10.839,33.036,10,32,10H6.25c-1.036,0-1.875,0.839-1.875,1.875l0,0
	c0,1.036,0.839,1.875,1.875,1.875H32C33.036,13.75,33.875,12.911,33.875,11.875L33.875,11.875z"/>
</svg>
