<?xml version="1.0" encoding="utf-8"?>
<!-- Generator: Adobe Illustrator 15.0.0, SVG Export Plug-In  -->
<!DOCTYPE svg PUBLIC "-//W3C//DTD SVG 1.1//EN" "http://www.w3.org/Graphics/SVG/1.1/DTD/svg11.dtd" [
	<!ENTITY ns_flows "http://ns.adobe.com/Flows/1.0/">
]>
<svg version="1.1"
	 xmlns="http://www.w3.org/2000/svg" xmlns:xlink="http://www.w3.org/1999/xlink" xmlns:a="http://ns.adobe.com/AdobeSVGViewerExtensions/3.0/"
	 x="0px" y="0px" width="38px" height="38px" viewBox="0 0 38 38" enable-background="new 0 0 38 38" xml:space="preserve">
<defs>
</defs>
<rect id="_x3C_Slice_x3E__14_" fill="none" width="38" height="38"/>
<path fill-rule="evenodd" clip-rule="evenodd" fill="#053563" d="M32.689,25.981l-12-20.801c-0.414-0.719-1.19-1.203-2.082-1.203
	c-0.886,0-1.664,0.484-2.078,1.203l-12,20.801c-0.203,0.351-0.32,0.763-0.32,1.195c0,1.323,1.074,2.403,2.398,2.403h24
	c1.33,0,2.403-1.08,2.403-2.403C33.011,26.744,32.894,26.332,32.689,25.981L32.689,25.981z M6.608,27.181l12-20.805l0.004,0.004
	l11.996,20.797L6.608,27.181z M18.607,21.897c-1.139,0-2.063,0.922-2.063,2.063c0,1.145,0.924,2.068,2.063,2.068
	c1.146,0,2.069-0.928,2.069-2.068S19.753,21.897,18.607,21.897L18.607,21.897z M16.544,14.091c0,0.122,0.011,0.238,0.03,0.35
	l1.014,6.029c0.086,0.484,0.51,0.857,1.02,0.857c0.515,0,0.939-0.373,1.021-0.857l1.019-6.029c0.019-0.111,0.029-0.228,0.029-0.35
	c0-1.139-0.924-2.063-2.069-2.063C17.468,12.028,16.544,12.952,16.544,14.091L16.544,14.091z M17.011,14.376"/>
</svg>
