<?xml version="1.0" encoding="utf-8"?>
<!-- Generator: Adobe Illustrator 15.0.0, SVG Export Plug-In  -->
<!DOCTYPE svg PUBLIC "-//W3C//DTD SVG 1.1//EN" "http://www.w3.org/Graphics/SVG/1.1/DTD/svg11.dtd" [
	<!ENTITY ns_flows "http://ns.adobe.com/Flows/1.0/">
]>
<svg version="1.1"
	 xmlns="http://www.w3.org/2000/svg" xmlns:xlink="http://www.w3.org/1999/xlink" xmlns:a="http://ns.adobe.com/AdobeSVGViewerExtensions/3.0/"
	 x="0px" y="0px" width="56px" height="56px" viewBox="0 0 56 56" enable-background="new 0 0 56 56" xml:space="preserve">
<defs>
</defs>
<circle fill="#BCD0E9" cx="28.02" cy="27.791" r="27.5"/>
<g>
	<g>
		<g>
			<g>
				<path fill="#11497F" d="M39.138,34.398c-1.221,1.369-3.014,2.063-5.33,2.063c-4.566,0-9.717-2.654-10.703-3.186
					c-0.193-0.105-0.315-0.309-0.315-0.529V18.916c0-0.289,0.209-0.538,0.495-0.589c1.027-0.182,6.216-1.302,7.549-5.511
					c0.597-1.884,1.882-3.2,3.124-3.2c0.557,0,1.049,0.276,1.382,0.78c0.946,1.429,0.576,4.51-1.012,8.448
					c0.419-0.099,0.844-0.147,1.262-0.147c1.694,0,4.638,0.864,5.297,6.642C41.363,29.518,40.773,32.564,39.138,34.398
					L39.138,34.398z M39.138,34.398"/>
				<path fill="#11497F" d="M20.907,33.414V18.112c0-0.331-0.267-0.601-0.597-0.601h-4.717c-0.331,0-0.599,0.27-0.599,0.601v15.302
					c0,0.33,0.269,0.598,0.599,0.598h4.717C20.64,34.012,20.907,33.744,20.907,33.414L20.907,33.414z"/>
			</g>
		</g>
	</g>
</g>
<rect id="_x3C_Slice_x3E__15_" fill="none" width="56" height="56"/>
</svg>
