<?xml version="1.0" encoding="utf-8"?>
<!-- Generator: Adobe Illustrator 15.0.0, SVG Export Plug-In  -->
<!DOCTYPE svg PUBLIC "-//W3C//DTD SVG 1.1//EN" "http://www.w3.org/Graphics/SVG/1.1/DTD/svg11.dtd" [
	<!ENTITY ns_flows "http://ns.adobe.com/Flows/1.0/">
]>
<svg version="1.1"
	 xmlns="http://www.w3.org/2000/svg" xmlns:xlink="http://www.w3.org/1999/xlink" xmlns:a="http://ns.adobe.com/AdobeSVGViewerExtensions/3.0/"
	 x="0px" y="0px" width="38px" height="35px" viewBox="0 0 38 35" enable-background="new 0 0 38 35" xml:space="preserve">
<defs>
</defs>
<path fill="#FFFFFF" d="M35.11,17.123c0,8.836-7.163,16-16,16c-8.836,0-16-7.164-16-16c0-8.838,7.164-16,16-16
	C27.947,1.123,35.11,8.285,35.11,17.123"/>
<rect x="16.464" y="17.867" fill="#11497F" width="2.205" height="2.205"/>
<rect x="13.377" y="17.867" fill="#11497F" width="2.206" height="2.205"/>
<rect x="19.552" y="17.867" fill="#11497F" width="2.204" height="2.205"/>
<rect x="22.641" y="17.867" fill="#11497F" width="2.203" height="2.205"/>
<rect x="16.464" y="14.771" fill="#11497F" width="2.205" height="2.205"/>
<rect x="19.552" y="14.771" fill="#11497F" width="2.204" height="2.205"/>
<rect x="22.641" y="14.771" fill="#11497F" width="2.203" height="2.205"/>
<rect x="16.464" y="20.959" fill="#11497F" width="2.205" height="2.207"/>
<rect x="13.377" y="20.959" fill="#11497F" width="2.206" height="2.207"/>
<rect x="19.552" y="20.959" fill="#11497F" width="2.204" height="2.207"/>
<path fill="#11497F" d="M25.323,9.377v1.619h-2.068V9.377h-3.132v1.619h-2.069V9.377h-3.129v1.619h-2.068V9.377h-2.563v16.385
	h12.824l4.812-4.941V9.377H25.323z M26.447,21.367h-3.14v3.186H11.776V13.42h14.67L26.447,21.367z"/>
<path fill="#11497F" d="M18.333,10.68h1.556v-3.24h-0.004c-0.037-0.398-0.369-0.703-0.775-0.703c-0.403,0-0.737,0.305-0.774,0.703
	h-0.002v0.068v0.006V10.68z"/>
<path fill="#11497F" d="M23.524,10.68h1.557v-3.24h-0.005c-0.036-0.398-0.368-0.703-0.772-0.703c-0.406,0-0.738,0.305-0.776,0.703
	h-0.003v0.068v0.006V10.68z"/>
<rect id="_x3C_Slice_x3E__14_" fill="none" width="38" height="35"/>
</svg>
