<?xml version="1.0" encoding="utf-8"?>
<!-- Generator: Adobe Illustrator 15.0.0, SVG Export Plug-In  -->
<!DOCTYPE svg PUBLIC "-//W3C//DTD SVG 1.1//EN" "http://www.w3.org/Graphics/SVG/1.1/DTD/svg11.dtd" [
	<!ENTITY ns_flows "http://ns.adobe.com/Flows/1.0/">
]>
<svg version="1.1"
	 xmlns="http://www.w3.org/2000/svg" xmlns:xlink="http://www.w3.org/1999/xlink" xmlns:a="http://ns.adobe.com/AdobeSVGViewerExtensions/3.0/"
	 x="0px" y="0px" width="38px" height="35px" viewBox="0 0 38 35" enable-background="new 0 0 38 35" xml:space="preserve">
<defs>
</defs>
<path fill="#FFFFFF" d="M35.11,18.125c0,8.839-7.163,16.001-16,16.001c-8.836,0-16-7.162-16-16.001c0-8.836,7.164-15.998,16-15.998
	C27.947,2.127,35.11,9.289,35.11,18.125"/>
<path fill="#8DD0E2" d="M29.956,23.126h-3.5c0.539,0,2.071-0.98,2.071-2.154v-3.87v-1.846c0-1.492-2.028-1.131-2.028-1.131h-1.972
	v-4h-1v4h-3v-4h-1v4h-3v-4h-1v4h-4.091c0,0-1.275-0.006-1.275,1.486l0.243,2.082l-0.405,3.685c0,1.174,0.941,1.748,1.48,1.748H8.264
	c-0.479,0-0.754,0.027-0.613,0.373l2.1,2.652c0.141,0.346,0.645,0.975,1.126,0.975h16.468c0.48,0,0.985-0.756,1.127-1.102
	l2.099-2.287C30.711,23.39,30.436,23.126,29.956,23.126 M12.123,23.126c-0.002,0-1.907-0.268-1.907-1.014l-0.072-2.226
	c1-0.326,2.75-0.398,3.317-0.398c1.107,0,2.078,1.228,3.21,1.228c1.133,0,2.03-1.292,3.202-1.292c1.168,0,1.976,1.259,3.197,1.259
	c1.223,0,2.307-1.274,3.414-1.274c0.526,0,1.043,0.279,2.043,0.582v2.161c0,0.744-1.347,0.975-1.347,0.975H12.123z M15.982,9.242
	c0.435,0.004,0.702-0.432,0-1.18C15.292,8.811,15.558,9.238,15.982,9.242 M23.942,9.242c0.434,0.004,0.701-0.432,0-1.18
	C23.25,8.811,23.518,9.238,23.942,9.242 M19.971,9.242c0.434,0.004,0.701-0.432,0-1.18C19.282,8.811,19.546,9.238,19.971,9.242"/>
<rect id="_x3C_Slice_x3E__14_" fill="none" width="38" height="35"/>
</svg>
