<?xml version="1.0" encoding="utf-8"?>
<!-- Generator: Adobe Illustrator 15.0.0, SVG Export Plug-In  -->
<!DOCTYPE svg PUBLIC "-//W3C//DTD SVG 1.1//EN" "http://www.w3.org/Graphics/SVG/1.1/DTD/svg11.dtd" [
	<!ENTITY ns_flows "http://ns.adobe.com/Flows/1.0/">
]>
<svg version="1.1"
	 xmlns="http://www.w3.org/2000/svg" xmlns:xlink="http://www.w3.org/1999/xlink" xmlns:a="http://ns.adobe.com/AdobeSVGViewerExtensions/3.0/"
	 x="0px" y="0px" width="38px" height="38px" viewBox="0 0 38 38" enable-background="new 0 0 38 38" xml:space="preserve">
<defs>
</defs>
<rect id="_x3C_Slice_x3E__14_" fill="none" width="38" height="38"/>
<path fill="#053563" d="M26.546,24.667l-3.947-4.61c-0.44-0.518-0.38-1.288,0.138-1.725l4.239-3.576
	c0.514-0.436,1.156-0.744,1.424-0.682c0.276,0.063,0.881-0.281,1.349-0.768l0.951-0.98c0.469-0.486,0.542-1.268,0.155-1.741
	c-0.386-0.473-1.159-0.561-1.728-0.192l-1.142,0.739c-0.568,0.366-1.031,0.87-1.031,1.126c0,0.258-0.416,0.818-0.934,1.258
	l-4.294,3.637c-0.518,0.437-1.292,0.375-1.736-0.141l-1.276-1.491c-0.439-0.518-0.514-1.331-0.202-1.842
	c0.314-0.515,0.844-1.439,0.844-2.116c0-0.812-0.378-1.986-1.993-3.305c-1.765-1.441-3.34-1.705-4.362-1.671
	c-0.675,0.025-0.851,0.642-0.422,1.161l2.157,2.609c0.429,0.526,0.415,1.359-0.034,1.87l-0.044,0.054
	c-0.445,0.504-1.277,1.204-1.854,1.559l-0.025,0.01c-0.578,0.356-1.409,0.23-1.854-0.276l-2.241-2.534
	c-0.447-0.512-1.087-0.435-1.214,0.232c-0.159,0.809-0.178,2.004,0.419,3.471c0.257,0.624,0.808,1.582,1.238,2.105
	c0.821,1.019,1.633,1.379,2.257,1.48c0.67,0.105,1.631-0.262,2.134-0.466c0.51-0.206,1.253,0.027,1.68,0.555l1.272,1.578
	c0.423,0.526,0.513,1.173,0.195,1.444c-0.322,0.27-0.931,0.067-1.363-0.456l-0.058-0.069c-0.433-0.52-0.919-0.942-1.088-0.942
	c-0.168,0-0.294,0.547-0.277,1.224l0.007,0.381c0.016,0.677-0.501,1.127-1.16,1.005c-0.659-0.122-1.615,0.126-2.139,0.558
	l-5.53,4.536c-0.52,0.429-0.946,1.149-0.946,1.613c0,0.458,0.341,1.264,0.768,1.793l1.055,1.317c0.422,0.529,1.131,1.003,1.581,1.06
	c0.452,0.058,1.241-0.25,1.757-0.679l5.54-4.615c0.525-0.433,0.964-1.331,0.991-2.011l0.008-0.151
	c0.025-0.68,0.58-1.107,1.242-0.959l0.062,0.01c0.661,0.148,1.196,0.106,1.196-0.09c0-0.199-0.277-0.688-0.618-1.101
	c-0.341-0.413-0.365-0.96-0.049-1.224c0.316-0.268,0.914-0.055,1.34,0.474l3.687,4.573c0.426,0.527,0.727,1.139,0.704,1.368
	c-0.018,0.14-0.023,0.277-0.023,0.42c0,2.146,1.737,3.884,3.879,3.884c2.144,0,3.881-1.738,3.881-3.884
	c0-1.681-1.068-3.112-2.564-3.647C27.909,25.596,26.99,25.181,26.546,24.667L26.546,24.667z M27.229,31.566
	c-1.155,0-2.096-0.935-2.096-2.093c0-1.157,0.94-2.097,2.096-2.097c1.158,0,2.094,0.939,2.094,2.097
	C29.323,30.632,28.387,31.566,27.229,31.566L27.229,31.566z M27.229,31.566"/>
</svg>
