<?xml version="1.0" encoding="utf-8"?>
<!-- Generator: Adobe Illustrator 16.0.3, SVG Export Plug-In . SVG Version: 6.00 Build 0)  -->
<!DOCTYPE svg PUBLIC "-//W3C//DTD SVG 1.1//EN" "http://www.w3.org/Graphics/SVG/1.1/DTD/svg11.dtd">
<svg version="1.1" id="Camada_1" xmlns="http://www.w3.org/2000/svg" xmlns:xlink="http://www.w3.org/1999/xlink" x="0px" y="0px"
	 width="38px" height="38px" viewBox="0 0 38 38" enable-background="new 0 0 38 38" xml:space="preserve">
<g>
	<path fill="#053563" d="M33.572,24.872c0,0,0-9.022,0-11.435c0-2.414-2.413-2.586-2.413-2.586s-3.217,0-3.562,0
		s-0.401-0.403-0.401-0.403s0-0.115,0-2.298c0-2.184-2.472-2.414-2.472-2.414s-15.975,0-18.101,0S4.153,8.208,4.153,8.208v11.72
		c0,1.897,1.494,2.128,2.011,2.303c0.518,0.17,0.575,0.458,0.575,0.458v4.713c0,0,5.401-3.909,6.034-4.54
		c0.632-0.631,1.379-0.648,1.379-0.648s8.677,0,10.788,0s2.17-2.169,2.17-2.169s0-5.918,0-6.292c0-0.373,0.373-0.373,0.373-0.373
		h3.505v11.492c0,0-2.184,0-2.356,0c-0.172,0-0.172,0.172-0.172,0.172v2.357c0,0-2.241-1.667-2.816-2.07
		c-0.574-0.402-0.918-0.345-0.918-0.345H14.381c0,0-1.953,1.323-2.528,1.84s1.092,0.631,1.092,0.631s9.25,0,10.285,0
		c1.033,0,1.608,0.461,1.608,0.461l6.205,4.596c0,0,0-4.596,0-4.769c0-0.174,0.289-0.344,0.289-0.344
		C33.688,27.057,33.572,24.872,33.572,24.872z M24.093,19.928c-0.633,0-11.436,0-11.436,0l-3.275,2.36v-2.36H6.739V8.724
		c0,0,0.058-0.459,0.574-0.459c0.517,0,16.836,0,16.836,0s0.517,0.058,0.517,0.459c0,0.403,0,10.804,0,10.804
		S24.725,19.928,24.093,19.928z"/>
	<circle fill="#053563" cx="11.538" cy="14.155" r="1.407"/>
	<circle fill="#053563" cx="16.306" cy="14.155" r="1.407"/>
	<circle fill="#053563" cx="21.075" cy="14.155" r="1.407"/>
</g>
</svg>
