<?xml version="1.0" encoding="utf-8"?>
<!-- Generator: Adobe Illustrator 15.0.0, SVG Export Plug-In  -->
<!DOCTYPE svg PUBLIC "-//W3C//DTD SVG 1.1//EN" "http://www.w3.org/Graphics/SVG/1.1/DTD/svg11.dtd" [
	<!ENTITY ns_flows "http://ns.adobe.com/Flows/1.0/">
]>
<svg version="1.1"
	 xmlns="http://www.w3.org/2000/svg" xmlns:xlink="http://www.w3.org/1999/xlink" xmlns:a="http://ns.adobe.com/AdobeSVGViewerExtensions/3.0/"
	 x="0px" y="0px" width="38px" height="35px" viewBox="0 0 38 35" enable-background="new 0 0 38 35" xml:space="preserve">
<defs>
</defs>
<path fill="#FFFFFF" d="M35.11,17.123c0,8.838-7.163,16-16,16c-8.836,0-16-7.162-16-16c0-8.834,7.164-15.997,16-15.997
	C27.947,1.126,35.11,8.289,35.11,17.123"/>
<path fill="#11497F" d="M29.377,23.83c0-0.01,0.003-0.02,0.003-0.027V11.512c0-0.008-0.002-0.014-0.002-0.018
	c-0.001-0.021-0.001-0.035-0.004-0.053c-0.001-0.014-0.003-0.029-0.007-0.043c-0.003-0.016-0.006-0.031-0.012-0.047
	c-0.002-0.014-0.008-0.029-0.01-0.043c-0.006-0.012-0.012-0.025-0.018-0.041c-0.007-0.012-0.014-0.023-0.02-0.035
	c-0.008-0.014-0.016-0.025-0.024-0.037c-0.007-0.012-0.015-0.021-0.022-0.033c-0.01-0.01-0.019-0.02-0.029-0.029
	c-0.01-0.01-0.018-0.018-0.028-0.027c-0.01-0.008-0.021-0.016-0.03-0.021c-0.013-0.008-0.025-0.016-0.035-0.021
	c-0.004-0.002-0.009-0.006-0.014-0.006c-0.734-0.316-7.232-3.035-9.252-1.176c-0.304,0.279-0.501,0.654-0.588,1.098
	c-0.057-0.02-0.113-0.035-0.176-0.035c-0.061,0-0.12,0.016-0.176,0.035c-0.086-0.443-0.285-0.818-0.586-1.098
	c-2.021-1.859-8.519,0.859-9.254,1.176c-0.002,0-0.007,0.004-0.013,0.006c-0.012,0.006-0.022,0.014-0.034,0.021
	c-0.012,0.006-0.021,0.014-0.031,0.021c-0.01,0.008-0.02,0.018-0.029,0.025c-0.01,0.01-0.02,0.02-0.028,0.031
	c-0.008,0.012-0.016,0.021-0.022,0.033c-0.008,0.012-0.017,0.023-0.024,0.037c-0.007,0.012-0.013,0.023-0.021,0.035
	c-0.004,0.016-0.01,0.029-0.016,0.041c-0.005,0.014-0.009,0.029-0.013,0.043c-0.004,0.016-0.009,0.031-0.011,0.047
	c-0.004,0.014-0.004,0.029-0.006,0.043c-0.002,0.018-0.002,0.033-0.004,0.053c0,0.004-0.002,0.01-0.002,0.018v12.291
	c0,0.008,0.002,0.018,0.004,0.027c0,0.016,0,0.033,0.002,0.051c0.002,0.014,0.006,0.031,0.01,0.047c0,0.008,0,0.02,0.005,0.027
	c0,0.006,0.004,0.012,0.005,0.016c0.005,0.018,0.011,0.033,0.018,0.045c0.006,0.016,0.008,0.027,0.014,0.039
	c0.011,0.014,0.018,0.027,0.025,0.041c0.006,0.012,0.014,0.023,0.021,0.033c0.01,0.012,0.019,0.023,0.028,0.033
	c0.008,0.008,0.016,0.018,0.025,0.025c0.012,0.012,0.021,0.02,0.034,0.029c0.009,0.006,0.019,0.012,0.028,0.02
	c0.011,0.006,0.022,0.012,0.035,0.016c0.012,0.008,0.023,0.01,0.034,0.014s0.022,0.008,0.034,0.008
	c0.014,0.004,0.027,0.006,0.041,0.008c0.006,0,0.008,0,0.014,0h9.397h0.994h9.397h0.002c0.035,0,0.067-0.008,0.101-0.02
	c0.007-0.002,0.013-0.006,0.022-0.01c0.03-0.014,0.062-0.031,0.088-0.057c0.004-0.004,0.006-0.008,0.008-0.012
	c0.027-0.021,0.05-0.049,0.069-0.082c0.005-0.006,0.009-0.012,0.013-0.02c0.021-0.033,0.037-0.074,0.047-0.115
	c0.002-0.006,0.004-0.01,0.006-0.012c0.001-0.008,0.003-0.02,0.005-0.027c0.004-0.016,0.007-0.033,0.008-0.047
	C29.375,23.863,29.377,23.846,29.377,23.83 M19.981,11.512c0-0.377,0.104-0.648,0.328-0.854c1.389-1.277,6.252,0.344,8.324,1.199
	v11.285c-1.731-0.693-6.98-2.607-8.76-0.971c-0.051,0.049-0.095,0.104-0.139,0.154V11.961
	C19.877,11.891,19.981,11.719,19.981,11.512 M17.911,10.658c0.223,0.205,0.327,0.477,0.327,0.854c0,0.207,0.104,0.381,0.247,0.449
	v10.363c-0.045-0.051-0.088-0.105-0.137-0.152c-1.78-1.637-7.03,0.275-8.76,0.971V11.857C11.659,11.002,16.522,9.381,17.911,10.658"
	/>
<rect id="_x3C_Slice_x3E__14_" fill="none" width="38" height="35"/>
</svg>
