<?xml version="1.0" encoding="utf-8"?>
<!-- Generator: Adobe Illustrator 15.0.0, SVG Export Plug-In  -->
<!DOCTYPE svg PUBLIC "-//W3C//DTD SVG 1.1//EN" "http://www.w3.org/Graphics/SVG/1.1/DTD/svg11.dtd" [
	<!ENTITY ns_flows "http://ns.adobe.com/Flows/1.0/">
]>
<svg version="1.1"
	 xmlns="http://www.w3.org/2000/svg" xmlns:xlink="http://www.w3.org/1999/xlink" xmlns:a="http://ns.adobe.com/AdobeSVGViewerExtensions/3.0/"
	 x="0px" y="0px" width="38px" height="39px" viewBox="0 0 38 39" enable-background="new 0 0 38 39" xml:space="preserve">
<defs>
</defs>
<rect id="_x3C_Slice_x3E__14_" fill="none" width="38" height="39"/>
<g>
	<g>
		<path fill="#575655" d="M7.034,37.908c-0.485,0-1.105-0.106-1.86-0.317v-1.016c0.813,0.377,1.482,0.566,2.007,0.566
			c0.403,0,0.729-0.106,0.975-0.317c0.245-0.211,0.368-0.49,0.368-0.835c0-0.283-0.081-0.524-0.241-0.723
			c-0.162-0.199-0.459-0.42-0.892-0.664l-0.498-0.288c-0.615-0.352-1.049-0.683-1.302-0.994c-0.252-0.311-0.378-0.673-0.378-1.086
			c0-0.557,0.202-1.015,0.605-1.375s0.918-0.54,1.543-0.54c0.557,0,1.145,0.093,1.763,0.278v0.938
			c-0.762-0.299-1.33-0.449-1.704-0.449c-0.354,0-0.647,0.094-0.879,0.283s-0.347,0.426-0.347,0.713c0,0.241,0.085,0.454,0.254,0.64
			s0.479,0.407,0.928,0.664l0.518,0.293c0.625,0.355,1.062,0.69,1.309,1.006s0.371,0.695,0.371,1.138
			c0,0.628-0.232,1.133-0.695,1.514C8.413,37.718,7.798,37.908,7.034,37.908z"/>
		<path fill="#575655" d="M10.899,37.728v-7.227h1.025v7.227H10.899z"/>
		<path fill="#575655" d="M19.114,37.532c-0.876,0.25-1.639,0.376-2.29,0.376c-1.149,0-2.03-0.327-2.644-0.981
			c-0.614-0.654-0.921-1.592-0.921-2.813c0-1.198,0.311-2.13,0.933-2.795s1.494-0.999,2.617-0.999c0.735,0,1.501,0.109,2.295,0.327
			v0.947c-0.996-0.338-1.76-0.508-2.29-0.508c-0.781,0-1.388,0.265-1.819,0.796c-0.431,0.531-0.646,1.278-0.646,2.241
			c0,0.954,0.231,1.695,0.693,2.224s1.11,0.793,1.943,0.793c0.342,0,0.711-0.06,1.108-0.181v-2.354h1.021V37.532z"/>
		<path fill="#575655" d="M25.557,37.728l-0.786-2.002h-3.062l-0.796,2.002h-0.952l2.866-7.227h1.016l2.822,7.227H25.557z
			 M24.473,34.964l-1.23-3.115l-1.235,3.115H24.473z"/>
		<path fill="#575655" d="M27.61,37.728v-7.227h2.402c0.716,0,1.295,0.08,1.736,0.239c0.44,0.16,0.822,0.43,1.145,0.811
			c0.511,0.605,0.767,1.403,0.767,2.393c0,1.201-0.317,2.132-0.952,2.793s-1.528,0.991-2.681,0.991H27.61z M28.635,36.961h1.313
			c0.938,0,1.602-0.252,1.992-0.757c0.42-0.537,0.63-1.258,0.63-2.163c0-0.85-0.207-1.517-0.62-2.002
			c-0.251-0.296-0.55-0.499-0.898-0.608s-0.872-0.164-1.572-0.164h-0.845V36.961z"/>
	</g>
</g>
<polygon fill="#053563" points="10.666,20.743 9.82,20.743 9.82,2.265 21.188,2.265 24.18,5.257 24.18,15.04 23.336,15.04 
	23.336,5.607 20.838,3.109 10.666,3.109 "/>
<path fill="#053563" d="M23.758,5.854h-2.744l-0.422-0.422V2.687l0.721-0.298l2.744,2.745L23.758,5.854z M21.436,5.011h1.303
	l-1.303-1.304V5.011z"/>
<rect x="11.629" y="8.002" fill="#053563" width="10.963" height="1.267"/>
<rect x="11.629" y="11.487" fill="#053563" width="10.963" height="1.266"/>
<rect x="11.629" y="14.936" fill="#053563" width="2.232" height="1.268"/>
<path fill="#053563" d="M26.75,15.599c0-0.344,0-1.768,0-2.599c0-0.951-1.584-0.951-1.584-0.951v3.548l-11.508-0.01l-4.719,9.907
	H7.357V11.769c0-0.408,0.121-0.715,0.371-0.941c0.332-0.301,0.82-0.412,1.219-0.451C8.971,10.378,9,10.379,9.018,10.38l0.002-0.009
	c0.33-0.026,0.582-0.005,0.588-0.005l0.084-0.84C9.664,9.524,9.359,9.499,8.957,9.532c-0.408-0.018-1.676-0.007-2.455,0.712
	c-0.418,0.386-0.629,0.899-0.623,1.524v14.57h0.635h2.023h0.465h0.635h17.359l5.879-10.734L26.75,15.599z"/>
</svg>
